<svg width="22" height="24" viewBox="0 0 22 24" fill="none" xmlns="http://www.w3.org/2000/svg">
<path d="M17.2222 4.30315H4.59448L5.96248 2.88473C6.16064 2.67768 6.27196 2.39686 6.27196 2.10405C6.27196 1.81124 6.16064 1.53042 5.96248 1.32337C5.76433 1.11632 5.49558 1 5.21534 1C4.93511 1 4.66636 1.11632 4.4682 1.32337L1.31127 4.62202C1.21264 4.72424 1.13435 4.84585 1.08093 4.97984C1.02751 5.11383 1 5.25755 1 5.4027C1 5.54785 1.02751 5.69157 1.08093 5.82556C1.13435 5.95955 1.21264 6.08116 1.31127 6.18338L4.4682 9.48203C4.56603 9.58509 4.68242 9.66689 4.81065 9.72271C4.93888 9.77853 5.07643 9.80727 5.21534 9.80727C5.35426 9.80727 5.4918 9.77853 5.62004 9.72271C5.74827 9.66689 5.86466 9.58509 5.96248 9.48203C6.06112 9.37981 6.1394 9.2582 6.19283 9.12421C6.24625 8.99022 6.27376 8.8465 6.27376 8.70135C6.27376 8.5562 6.24625 8.41248 6.19283 8.27849C6.1394 8.1445 6.06112 8.02289 5.96248 7.92067L4.59448 6.50225H17.2222C17.4378 6.49788 17.6521 6.53793 17.8529 6.62011C18.0536 6.70229 18.237 6.825 18.3923 6.98123C18.5477 7.13745 18.6721 7.32413 18.7584 7.53061C18.8447 7.73708 18.8913 7.95929 18.8954 8.18456V10.9004C18.8954 11.1921 19.0062 11.4717 19.2036 11.6779C19.4009 11.8842 19.6686 12 19.9477 12C20.2268 12 20.4944 11.8842 20.6918 11.6779C20.8891 11.4717 21 11.1921 21 10.9004V8.18456C20.9959 7.67051 20.8949 7.16234 20.7028 6.68908C20.5107 6.21581 20.2313 5.78671 19.8805 5.42628C19.5297 5.06586 19.1144 4.78116 18.6582 4.58845C18.2021 4.39575 17.7142 4.2988 17.2222 4.30315Z" fill="#B7B5B8" stroke="#B7B5B8" stroke-width="0.5"/>
<path d="M17.5318 14.5175C17.3336 14.3105 17.0649 14.1942 16.7847 14.1942C16.5044 14.1942 16.2357 14.3105 16.0375 14.5175C15.8394 14.7246 15.728 15.0053 15.728 15.2981C15.728 15.5908 15.8394 15.8716 16.0375 16.0786L17.4055 17.4968H4.77779C4.56221 17.5012 4.3479 17.4611 4.14713 17.379C3.94636 17.2968 3.76305 17.1741 3.60767 17.0179C3.45229 16.8617 3.3279 16.6751 3.24158 16.4686C3.15527 16.2622 3.10873 16.04 3.10462 15.8148V13.0994C3.10462 12.8078 2.99375 12.5282 2.79641 12.322C2.59906 12.1158 2.3314 12 2.05231 12C1.77322 12 1.50556 12.1158 1.30821 12.322C1.11087 12.5282 1 12.8078 1 13.0994V15.8148C1.00413 16.3288 1.10512 16.8368 1.29721 17.31C1.4893 17.7832 1.76872 18.2122 2.11953 18.5726C2.47033 18.933 2.88565 19.2176 3.34175 19.4103C3.79786 19.603 4.28583 19.6999 4.77779 19.6955H17.4055L16.0375 21.1137C15.9389 21.2159 15.8606 21.3375 15.8072 21.4715C15.7537 21.6054 15.7262 21.7491 15.7262 21.8943C15.7262 22.0394 15.7537 22.1831 15.8072 22.3171C15.8606 22.451 15.9389 22.5726 16.0375 22.6748C16.1353 22.7779 16.2517 22.8596 16.38 22.9155C16.5082 22.9713 16.6457 23 16.7847 23C16.9236 23 17.0611 22.9713 17.1894 22.9155C17.3176 22.8596 17.434 22.7779 17.5318 22.6748L20.6887 19.3767C20.7874 19.2745 20.8656 19.1529 20.9191 19.019C20.9725 18.885 21 18.7413 21 18.5962C21 18.451 20.9725 18.3074 20.9191 18.1734C20.8656 18.0394 20.7874 17.9178 20.6887 17.8156L17.5318 14.5175Z" fill="#B7B5B8" stroke="#B7B5B8" stroke-width="0.5"/>
</svg>
