<svg width="26" height="22" viewBox="0 0 26 22" fill="none" xmlns="http://www.w3.org/2000/svg">
<path d="M25.7204 18.5561C25.7084 18.5725 25.6973 18.5894 25.6846 18.6054C25.6554 18.6421 25.6245 18.6774 25.5919 18.711L22.8065 21.5804C22.5452 21.8492 22.191 22.0001 21.8218 22C21.4525 21.9999 21.0984 21.8487 20.8373 21.5797C20.5763 21.3108 20.4295 20.946 20.4294 20.5656C20.4293 20.1852 20.5757 19.8204 20.8367 19.5512L21.2446 19.1309H21.0016C19.5977 19.1295 18.2143 18.7836 16.966 18.1218C15.7177 17.46 14.6404 16.5014 13.8232 15.3254L8.98154 8.34253C8.42242 7.5379 7.6853 6.88204 6.83119 6.42926C5.97709 5.97647 5.03057 5.73978 4.07001 5.73878H1.39287C1.02346 5.73878 0.669174 5.58761 0.407961 5.31852C0.146748 5.04943 0 4.68446 0 4.30391C0 3.92336 0.146748 3.55839 0.407961 3.2893C0.669174 3.02021 1.02346 2.86904 1.39287 2.86904H4.07001C5.47391 2.87049 6.85728 3.21643 8.10558 3.87821C9.35388 4.53999 10.4312 5.49857 11.2483 6.67458L16.0901 13.6575C16.6492 14.4621 17.3863 15.1179 18.2404 15.5707C19.0945 16.0235 20.041 16.2602 21.0016 16.2612H21.2446L20.8367 15.8409C20.5757 15.5718 20.4293 15.2069 20.4294 14.8265C20.4295 14.4462 20.5763 14.0814 20.8373 13.8124C21.0984 13.5434 21.4525 13.3923 21.8218 13.3921C22.191 13.392 22.5452 13.5429 22.8065 13.8117L25.5919 16.6812C25.6245 16.7147 25.6554 16.7501 25.6846 16.7868C25.6973 16.8028 25.7084 16.8197 25.7204 16.8361C25.7357 16.857 25.7515 16.8776 25.7656 16.8995C25.7788 16.9197 25.7901 16.9406 25.8021 16.9614C25.8134 16.9808 25.8253 16.9998 25.8356 17.0198C25.8467 17.0411 25.8562 17.0631 25.8661 17.0849C25.8755 17.1055 25.8856 17.1258 25.8941 17.147C25.9026 17.1683 25.9096 17.1902 25.9171 17.2119C25.925 17.2343 25.9333 17.2565 25.94 17.2794C25.9466 17.3014 25.9513 17.3238 25.9567 17.3461C25.9623 17.3692 25.9686 17.3919 25.9731 17.4154C25.9782 17.4416 25.9812 17.4681 25.9849 17.4944C25.9876 17.5144 25.9913 17.534 25.9932 17.5542C26.0023 17.6486 26.0023 17.7436 25.9932 17.8379C25.9913 17.8582 25.9876 17.8778 25.9849 17.8977C25.9812 17.9241 25.9782 17.9505 25.9731 17.9767C25.9686 18.0002 25.9623 18.023 25.9567 18.0461C25.9513 18.0683 25.9466 18.0907 25.94 18.1128C25.9333 18.1357 25.9249 18.1579 25.9171 18.1804C25.9096 18.202 25.9026 18.2238 25.8941 18.2452C25.8856 18.2664 25.8755 18.2867 25.8661 18.3074C25.8561 18.3291 25.8467 18.351 25.8356 18.3724C25.8253 18.3924 25.8134 18.4114 25.8021 18.4308C25.7901 18.4515 25.7788 18.4725 25.7656 18.4927C25.7515 18.5145 25.7357 18.5351 25.7204 18.5561ZM14.4936 7.99759C14.6313 8.12165 14.7913 8.21656 14.9646 8.2769C15.1379 8.33724 15.321 8.36183 15.5035 8.34926C15.686 8.3367 15.8643 8.28722 16.0283 8.20366C16.1922 8.1201 16.3386 8.00409 16.459 7.86226C17.0255 7.19518 17.7239 6.6606 18.5073 6.29436C19.2908 5.92812 20.1412 5.73869 21.0016 5.73878H21.2446L20.8367 6.15904C20.5757 6.4282 20.4293 6.79307 20.4294 7.17345C20.4295 7.55383 20.5763 7.9186 20.8373 8.18757C21.0984 8.45654 21.4525 8.6077 21.8218 8.60783C22.191 8.60797 22.5452 8.45706 22.8065 8.18828L25.5922 5.31853C25.5957 5.315 25.5985 5.31108 25.6018 5.30753C25.6305 5.2774 25.6582 5.24628 25.6843 5.21367C25.6986 5.19566 25.7111 5.17672 25.7245 5.15818C25.7382 5.1392 25.7525 5.12072 25.7653 5.10105C25.7792 5.07953 25.7914 5.0572 25.8042 5.0351C25.8146 5.01697 25.8257 4.99928 25.8354 4.98063C25.847 4.95839 25.8568 4.93553 25.8672 4.91282C25.8762 4.89302 25.8857 4.87361 25.8939 4.85335C25.9028 4.83125 25.91 4.80868 25.9178 4.78623C25.9253 4.76452 25.9334 4.74309 25.94 4.72087C25.9466 4.69822 25.9515 4.67521 25.9571 4.65233C25.9625 4.62979 25.9687 4.60761 25.9731 4.58466C25.9782 4.55818 25.9813 4.53147 25.9849 4.50482C25.9876 4.48509 25.9913 4.46573 25.9932 4.44579C26.0023 4.35144 26.0023 4.2564 25.9932 4.16204C25.9913 4.14211 25.9876 4.12275 25.9849 4.10302C25.9813 4.07636 25.9782 4.04965 25.9731 4.02318C25.9687 4.00023 25.9625 3.97804 25.9571 3.95551C25.9515 3.93262 25.9466 3.90962 25.94 3.88696C25.9334 3.86475 25.9253 3.84332 25.9178 3.8216C25.91 3.79918 25.9028 3.77658 25.8939 3.75449C25.8857 3.7342 25.8762 3.71479 25.8671 3.69499C25.8568 3.67231 25.847 3.64945 25.8354 3.62721C25.8257 3.60855 25.8146 3.59086 25.8042 3.57273C25.7914 3.55064 25.7792 3.5283 25.7653 3.50679C25.7525 3.48711 25.7382 3.46863 25.7245 3.44966C25.7111 3.43112 25.6986 3.41217 25.6842 3.39416C25.6582 3.36155 25.6305 3.33043 25.6018 3.30031C25.5985 3.29675 25.5957 3.29283 25.5922 3.28931L22.8065 0.419558C22.5452 0.150776 22.191 -0.000133237 21.8218 8.8268e-08C21.4525 0.000133414 21.0984 0.151298 20.8373 0.420269C20.5762 0.689239 20.4295 1.054 20.4294 1.43438C20.4292 1.81476 20.5757 2.17963 20.8366 2.44879L21.2446 2.86904H21.0016C19.7441 2.86895 18.5011 3.14585 17.356 3.68118C16.2109 4.21651 15.1902 4.99789 14.3622 5.97291C14.119 6.25935 13.9962 6.63358 14.0209 7.01328C14.0455 7.39298 14.2156 7.74705 14.4936 7.99759ZM10.578 14.0024C10.2999 13.7519 9.93665 13.6254 9.56808 13.6508C9.1995 13.6762 8.8558 13.8513 8.61258 14.1377C8.04611 14.8048 7.34773 15.3394 6.56426 15.7056C5.78079 16.0719 4.93036 16.2613 4.07001 16.2612H1.39287C1.02346 16.2612 0.669174 16.4124 0.407961 16.6815C0.146748 16.9506 0 17.3155 0 17.6961C0 18.0766 0.146748 18.4416 0.407961 18.7107C0.669174 18.9798 1.02346 19.1309 1.39287 19.1309H4.07001C5.32751 19.1311 6.5705 18.8542 7.71561 18.3189C8.86071 17.7835 9.88145 17.0021 10.7094 16.0271C10.9526 15.7406 11.0754 15.3664 11.0507 14.9867C11.0261 14.607 10.856 14.2529 10.578 14.0024Z" fill="#B7B5B8"/>
</svg>
