<svg width="24" height="24" viewBox="0 0 24 24" fill="none" xmlns="http://www.w3.org/2000/svg">
<path d="M10.0328 5.125C10.1025 5.125 10.1721 5.13881 10.2386 5.1675C10.4286 5.2525 10.5553 5.44375 10.5553 5.65625V17.3438C10.5553 17.5562 10.4286 17.7475 10.2386 17.8325C10.1753 17.8644 10.1014 17.875 10.0275 17.875C9.90085 17.875 9.77418 17.8219 9.66863 17.7369L6.36483 14.6875H3.14547C2.57549 14.6875 2.11105 14.22 2.11105 13.6463V9.35375C2.11105 8.78 2.57549 8.3125 3.14547 8.3125H6.35427L9.66863 5.26313C9.77207 5.17388 9.90085 5.125 10.0328 5.125ZM10.0328 3C9.39314 3 8.77354 3.23375 8.28694 3.65875L8.26583 3.67681L8.24472 3.69594L5.53518 6.1875H3.14547C1.41124 6.1875 0 7.61125 0 9.35375V13.6463C0 15.3941 1.41124 16.8125 3.14547 16.8125H5.54363L8.24156 19.303L8.29433 19.3519L8.35028 19.3965C8.83582 19.7854 9.43008 20 10.0286 20C10.4244 20 10.797 19.9182 11.1369 19.7556C12.0678 19.32 12.6674 18.3786 12.6674 17.3438V5.65625C12.6674 4.60756 12.051 3.65344 11.0968 3.22631C10.759 3.07756 10.4012 3 10.0328 3ZM14.7774 17.875C14.7774 17.6646 14.8386 17.4532 14.9674 17.2672C19.2296 11.1366 15.056 5.8475 15.0138 5.79438C14.6444 5.3375 14.7151 4.66812 15.169 4.3005C15.6229 3.92862 16.291 4.00087 16.6594 4.45562C16.7122 4.5215 21.8684 11.058 16.7058 18.4828C16.3712 18.9641 15.7105 19.0809 15.2313 18.7463C14.9357 18.5401 14.7774 18.2097 14.7774 17.875Z" fill="#B7B5B8"/>
<path d="M19.094 23C18.858 23 18.62 22.9358 18.4211 22.8038C17.9451 22.4922 17.8631 21.9147 18.2331 21.5178C18.563 21.1631 26.2271 12.7138 18.1801 2.42114C17.8481 1.99675 17.9881 1.42845 18.493 1.15072C18.997 0.87207 19.6729 0.991229 20.0059 1.41379C24.6653 7.37177 24.4123 12.8219 23.3784 16.3454C22.2586 20.1585 20.0428 22.5509 19.9489 22.6517C19.7349 22.8808 19.4149 23 19.091 23H19.094Z" fill="#B7B5B8"/>
</svg>
